<svg width="136" height="30" viewBox="0 0 136 30" fill="none" xmlns="http://www.w3.org/2000/svg">
<path d="M21.4518 12.2287C21.4518 14.6316 20.9807 16.6897 20.0384 18.4029C19.1037 20.1089 17.8271 21.4156 16.2085 22.323C14.5975 23.2305 12.77 23.6842 10.7259 23.6842C8.68178 23.6842 6.85044 23.2305 5.23186 22.323C3.62089 21.4083 2.34427 20.098 1.402 18.392C0.467334 16.6788 0 14.6243 0 12.2287C0 9.82577 0.467334 7.77133 1.402 6.06534C2.34427 4.35209 3.62089 3.04174 5.23186 2.1343C6.85044 1.22686 8.68178 0.77314 10.7259 0.77314C12.77 0.77314 14.5975 1.22686 16.2085 2.1343C17.8271 3.04174 19.1037 4.35209 20.0384 6.06534C20.9807 7.77133 21.4518 9.82577 21.4518 12.2287ZM17.2002 12.2287C17.2002 10.5372 16.9228 9.11071 16.3681 7.94918C15.821 6.7804 15.0611 5.89837 14.0884 5.30309C13.1158 4.70055 11.9949 4.39927 10.7259 4.39927C9.45687 4.39927 8.33603 4.70055 7.36337 5.30309C6.3907 5.89837 5.62701 6.7804 5.07229 7.94918C4.52516 9.11071 4.2516 10.5372 4.2516 12.2287C4.2516 13.9201 4.52516 15.3503 5.07229 16.5191C5.62701 17.6806 6.3907 18.5626 7.36337 19.1652C8.33603 19.7604 9.45687 20.0581 10.7259 20.0581C11.9949 20.0581 13.1158 19.7604 14.0884 19.1652C15.0611 18.5626 15.821 17.6806 16.3681 16.5191C16.9228 15.3503 17.2002 13.9201 17.2002 12.2287Z" fill="#218460"/>
<path d="M25.2674 23.3793V6.65336H29.2682V9.44102H29.4506C29.7698 8.4755 30.3169 7.7314 31.092 7.20871C31.8747 6.67877 32.7675 6.41379 33.7706 6.41379C33.9986 6.41379 34.2531 6.42468 34.5343 6.44646C34.8231 6.46098 35.0624 6.48639 35.2524 6.52269V10.1488C35.0776 10.0907 34.8003 10.0399 34.4203 9.99637C34.048 9.94555 33.687 9.92015 33.3375 9.92015C32.5852 9.92015 31.9089 10.0762 31.3085 10.3884C30.7158 10.6933 30.2485 11.118 29.9065 11.6624C29.5646 12.2069 29.3936 12.8348 29.3936 13.5463V23.3793H25.2674Z" fill="#218460"/>
<path d="M44.8869 30C43.4051 30 42.1323 29.8076 41.0684 29.4229C40.0046 29.0454 39.1497 28.5372 38.5038 27.8984C37.8579 27.2595 37.4095 26.5517 37.1588 25.775L40.8747 24.9147C41.0418 25.2414 41.285 25.5644 41.6042 25.8838C41.9233 26.2105 42.3526 26.4791 42.8922 26.6897C43.4393 26.9074 44.127 27.0163 44.9553 27.0163C46.1255 27.0163 47.0944 26.7441 47.8619 26.1996C48.6294 25.6624 49.0131 24.7768 49.0131 23.5426V20.3739H48.8079C48.5952 20.7804 48.2836 21.1978 47.8733 21.6261C47.4705 22.0544 46.9348 22.4138 46.2661 22.7042C45.605 22.9946 44.7729 23.1397 43.7698 23.1397C42.4248 23.1397 41.2052 22.8385 40.111 22.2359C39.0243 21.6261 38.158 20.7187 37.5121 19.5136C36.8738 18.3013 36.5547 16.784 36.5547 14.9619C36.5547 13.1252 36.8738 11.5753 37.5121 10.3122C38.158 9.04174 39.0281 8.07985 40.1224 7.4265C41.2166 6.76588 42.4362 6.43557 43.7812 6.43557C44.8071 6.43557 45.6506 6.60254 46.3117 6.93648C46.9804 7.26316 47.5123 7.6588 47.9075 8.12341C48.3026 8.58076 48.6028 9.0127 48.8079 9.41924H49.0359V6.65336H53.1051V23.6515C53.1051 25.0817 52.748 26.265 52.0337 27.2015C51.3194 28.1379 50.3429 28.8385 49.1043 29.3031C47.8657 29.7677 46.4599 30 44.8869 30ZM44.9211 20.0472C45.795 20.0472 46.5397 19.8439 47.1552 19.4374C47.7707 19.0309 48.238 18.4465 48.5572 17.6842C48.8763 16.922 49.0359 16.0073 49.0359 14.9401C49.0359 13.8875 48.8763 12.9655 48.5572 12.1742C48.2456 11.3829 47.7821 10.7695 47.1666 10.3339C46.5587 9.89111 45.8102 9.66969 44.9211 9.66969C44.0016 9.66969 43.2341 9.89837 42.6186 10.3557C42.0031 10.8131 41.5396 11.441 41.228 12.2396C40.9164 13.0309 40.7607 13.931 40.7607 14.9401C40.7607 15.9637 40.9164 16.8603 41.228 17.6298C41.5472 18.392 42.0145 18.9873 42.63 19.4156C43.2531 19.8367 44.0168 20.0472 44.9211 20.0472Z" fill="#218460"/>
<path d="M62.372 23.7169C61.2626 23.7169 60.2633 23.5281 59.3743 23.1506C58.4928 22.7659 57.7937 22.1996 57.277 21.4519C56.7678 20.7042 56.5133 19.7822 56.5133 18.686C56.5133 17.7423 56.6956 16.9619 57.0604 16.3448C57.4251 15.7278 57.9229 15.2341 58.5536 14.8639C59.1843 14.4936 59.8948 14.2142 60.6851 14.0254C61.483 13.8294 62.3074 13.6878 63.1585 13.6007C64.1844 13.4991 65.0165 13.4083 65.6548 13.3285C66.2931 13.2414 66.7566 13.1107 67.0454 12.9365C67.3417 12.755 67.4899 12.4755 67.4899 12.098V12.0327C67.4899 11.2123 67.2354 10.5771 66.7262 10.127C66.2171 9.67695 65.4838 9.45191 64.5263 9.45191C63.5157 9.45191 62.714 9.66243 62.1213 10.0835C61.5362 10.5045 61.141 11.0018 60.9358 11.5753L57.0832 11.0526C57.3871 10.0363 57.8887 9.18693 58.5878 8.50454C59.2869 7.81488 60.1417 7.29945 61.1524 6.95826C62.1631 6.6098 63.2801 6.43557 64.5035 6.43557C65.347 6.43557 66.1867 6.52995 67.0226 6.71869C67.8585 6.90744 68.6222 7.2196 69.3137 7.65517C70.0052 8.08348 70.5599 8.66788 70.9778 9.40835C71.4034 10.1488 71.6161 11.0744 71.6161 12.1851V23.3793H67.6495V21.0817H67.5127C67.2619 21.5463 66.9086 21.9818 66.4527 22.3884C66.0043 22.7877 65.4382 23.1107 64.7543 23.3575C64.078 23.5971 63.2839 23.7169 62.372 23.7169ZM63.4435 20.8203C64.2718 20.8203 64.9899 20.6642 65.5978 20.3521C66.2057 20.0327 66.673 19.6116 66.9998 19.0889C67.3341 18.5662 67.5013 17.9964 67.5013 17.3793V15.4083C67.3721 15.51 67.1518 15.6044 66.8402 15.6915C66.5362 15.7786 66.1943 15.8548 65.8144 15.9201C65.4344 15.9855 65.0583 16.0436 64.6859 16.0944C64.3136 16.1452 63.9906 16.1887 63.717 16.225C63.1015 16.3049 62.5506 16.4356 62.0643 16.6171C61.5779 16.7985 61.1942 17.0526 60.913 17.3793C60.6319 17.6987 60.4913 18.1125 60.4913 18.6207C60.4913 19.3466 60.7687 19.8947 61.3234 20.265C61.8781 20.6352 62.5848 20.8203 63.4435 20.8203Z" fill="#218460"/>
<path d="M79.8914 13.5789V23.3793H75.7652V6.65336H79.709V9.49546H79.9142C80.3169 8.55898 80.959 7.81488 81.8405 7.26316C82.7296 6.71143 83.8276 6.43557 85.1346 6.43557C86.3429 6.43557 87.3953 6.6824 88.292 7.17604C89.1963 7.66969 89.8954 8.38476 90.3893 9.32123C90.8908 10.2577 91.1378 11.3938 91.1302 12.7296V23.3793H87.004V13.3394C87.004 12.2214 86.7 11.3466 86.0921 10.7151C85.4918 10.0835 84.6597 9.76769 83.5959 9.76769C82.874 9.76769 82.2318 9.92015 81.6695 10.225C81.1148 10.5227 80.6779 10.9546 80.3587 11.5209C80.0472 12.0871 79.8914 12.7731 79.8914 13.5789Z" fill="#218460"/>
<path d="M95.3248 23.3793V6.65336H99.451V23.3793H95.3248ZM97.3993 4.27949C96.7458 4.27949 96.1835 4.0726 95.7123 3.6588C95.2412 3.23775 95.0057 2.73321 95.0057 2.14519C95.0057 1.54991 95.2412 1.04537 95.7123 0.631578C96.1835 0.210526 96.7458 0 97.3993 0C98.0604 0 98.6227 0.210526 99.0863 0.631578C99.5574 1.04537 99.793 1.54991 99.793 2.14519C99.793 2.73321 99.5574 3.23775 99.0863 3.6588C98.6227 4.0726 98.0604 4.27949 97.3993 4.27949Z" fill="#218460"/>
<path d="M103.466 23.3793V20.8748L112.494 10.0617V9.92015H103.762V6.65336H117.543V9.34301L108.949 19.971V20.1125H117.839V23.3793H103.466Z" fill="#218460"/>
<path d="M126.756 23.7169C125.646 23.7169 124.647 23.5281 123.758 23.1506C122.877 22.7659 122.178 22.1996 121.661 21.4519C121.152 20.7042 120.897 19.7822 120.897 18.686C120.897 17.7423 121.079 16.9619 121.444 16.3448C121.809 15.7278 122.307 15.2341 122.937 14.8639C123.568 14.4936 124.279 14.2142 125.069 14.0254C125.867 13.8294 126.691 13.6878 127.542 13.6007C128.568 13.4991 129.4 13.4083 130.039 13.3285C130.677 13.2414 131.14 13.1107 131.429 12.9365C131.726 12.755 131.874 12.4755 131.874 12.098V12.0327C131.874 11.2123 131.619 10.5771 131.11 10.127C130.601 9.67695 129.868 9.45191 128.91 9.45191C127.9 9.45191 127.098 9.66243 126.505 10.0835C125.92 10.5045 125.525 11.0018 125.32 11.5753L121.467 11.0526C121.771 10.0363 122.273 9.18693 122.972 8.50454C123.671 7.81488 124.526 7.29945 125.536 6.95826C126.547 6.6098 127.664 6.43557 128.887 6.43557C129.731 6.43557 130.571 6.52995 131.406 6.71869C132.242 6.90744 133.006 7.2196 133.698 7.65517C134.389 8.08348 134.944 8.66788 135.362 9.40835C135.787 10.1488 136 11.0744 136 12.1851V23.3793H132.033V21.0817H131.897C131.646 21.5463 131.292 21.9818 130.837 22.3884C130.388 22.7877 129.822 23.1107 129.138 23.3575C128.462 23.5971 127.668 23.7169 126.756 23.7169ZM127.827 20.8203C128.656 20.8203 129.374 20.6642 129.982 20.3521C130.59 20.0327 131.057 19.6116 131.384 19.0889C131.718 18.5662 131.885 17.9964 131.885 17.3793V15.4083C131.756 15.51 131.536 15.6044 131.224 15.6915C130.92 15.7786 130.578 15.8548 130.198 15.9201C129.818 15.9855 129.442 16.0436 129.07 16.0944C128.697 16.1452 128.374 16.1887 128.101 16.225C127.485 16.3049 126.934 16.4356 126.448 16.6171C125.962 16.7985 125.578 17.0526 125.297 17.3793C125.016 17.6987 124.875 18.1125 124.875 18.6207C124.875 19.3466 125.153 19.8947 125.707 20.265C126.262 20.6352 126.969 20.8203 127.827 20.8203Z" fill="#218460"/>
</svg>
